<svg width="1346" height="145" viewBox="0 0 1346 145" class="text-primary" fill="#e5e7eb"  xmlns="http://www.w3.org/2000/svg">
<path d="M1283.38 79.9995C1276.3 77.7986 1273.57 73.3278 1275.02 67.0088C1276.21 61.8042 1282.17 58.0274 1287.64 59.0092C1292.33 59.8511 1296.4 65.5254 1296 70.67C1295.52 76.8885 1291.45 79.999 1283.38 79.9995Z" />
<path d="M1332.87 32.3788C1332.94 34.4129 1333.3 36.4719 1332.49 37.8499C1330.3 41.597 1327.62 45.0559 1325.79 47.679C1325.74 58.1696 1333.73 57.9459 1339.75 58.6567C1344.83 59.2556 1345.29 61.3077 1345.04 65.2482C1344.84 68.401 1344.62 71.634 1345.09 74.7293C1345.79 79.3746 1342.82 80.229 1339.52 80.9719C1337.64 81.3974 1335.7 81.6239 1333.8 81.986C1325.99 83.4721 1323.72 88.777 1328.05 95.3969C1334.39 105.105 1334.39 105.105 1326.32 113.177C1325.15 114.354 1324.18 115.984 1322.76 116.603C1321.26 117.258 1319.14 117.506 1317.66 116.945C1315.45 116.107 1313.25 114.717 1311.63 113.009C1307.83 109.014 1303.64 109.898 1299.9 112.227C1298.28 113.239 1297.51 116.226 1297.08 118.456C1295.04 128.983 1295.13 128.833 1284.66 129.043C1272.08 129.295 1275.18 128.532 1273.18 118.702C1271.46 110.218 1267.13 107.829 1259.66 112.765C1250.39 118.892 1250.39 118.892 1242.4 110.9C1236.19 104.688 1236.2 104.698 1241.35 97.1394C1242.87 94.894 1244.29 92.574 1245.71 90.3653C1244.81 88.6073 1244.14 86.7238 1242.97 85.2245C1241.96 83.9241 1240.54 82.5452 1239.04 82.115C1236.41 81.363 1233.56 81.4633 1230.85 80.9295C1227.5 80.2686 1225.27 78.6901 1225.93 74.5997C1226.32 72.1632 1226.36 69.5488 1225.93 67.1263C1224.93 61.5329 1226.97 58.5791 1232.66 58.0612C1234.91 57.8564 1237.14 57.3419 1239.38 57.0047C1243.28 56.418 1246.18 49.9863 1244.02 46.5736C1242.13 43.5814 1239.78 40.8095 1238.35 37.6204C1237.64 36.0505 1237.88 33.2806 1238.86 31.8908C1240.86 29.0795 1243.88 27.0204 1246.07 24.3174C1248.77 20.9825 1251.55 21.1627 1254.71 23.2876C1256.99 24.8195 1259.19 26.4671 1261.49 27.9468C1265.47 30.4976 1271.38 28.2911 1272.65 23.7733C1273.22 21.7554 1273.63 19.6845 1273.97 17.6154C1275.25 10.0038 1275.23 9.99385 1282.08 10.0013C1299.17 10.02 1293.95 8.29085 1297.99 24.6352C1298.14 25.2536 1298.07 25.9267 1298.07 25.9721C1305.5 31.662 1310.99 27.1868 1316.37 23.055C1319.35 20.7662 1321.57 20.4183 1324.2 23.5827C1326.75 26.64 1329.81 29.2736 1332.87 32.3788ZM1294.17 47.0155C1289.8 46.6765 1285.27 45.4305 1281.08 46.1693C1268.79 48.3416 1261.98 56.7601 1261.13 68.2315C1259.93 84.3143 1275.73 98.0846 1293.24 92.901C1302.41 90.188 1310.97 78.1175 1309.96 69.0535C1308.85 59.1861 1303.91 51.8185 1294.17 47.0155Z" />
<path d="M1168 87C1168 66.524 1168 46.5482 1168 26.0011C1172.8 26.0011 1177.43 25.7287 1181.99 26.1796C1183.23 26.3028 1184.43 28.4905 1185.34 29.9272C1186.33 31.4831 1186.95 33.2688 1188.01 35.5446C1196.35 25.3521 1207.94 25.5269 1219.67 24.8776C1219.67 32.4825 1219.67 39.901 1219.67 47.4854C1214.41 47.9747 1208.91 48.3417 1203.45 49.0354C1197.76 49.759 1194.6 53.7162 1193.21 58.7967C1192.24 62.3696 1192.09 66.241 1192.05 69.9837C1191.92 83.4605 1192 96.9392 1192 110.708C1184.06 110.708 1176.32 110.708 1168 110.708C1168 103.031 1168 95.2656 1168 87Z" />
<path d="M1141 76C1125.4 76 1110.31 76 1095.08 76C1098.36 87.3138 1103.73 92.5312 1114.42 92.7675C1120.64 92.9048 1126.88 90.8504 1131.03 85.1912C1131.76 84.1945 1133.18 83.1245 1134.31 83.0966C1141.79 82.9109 1149.28 83.0005 1156.81 83.0005C1153.7 99.3216 1134.9 116.568 1110.26 113.866C1087.26 111.342 1067.28 93.1825 1071.19 61.3079C1073.84 39.7795 1090.83 20.4351 1122.58 24.2172C1142.92 26.6406 1162.02 44.5404 1158.72 76C1153.03 76 1147.26 76 1141 76ZM1100.46 50.0335C1098.9 52.7771 1097.34 55.5207 1095.51 58.7504C1108.98 58.7504 1121.75 58.7504 1134.58 58.7504C1131.18 45.4317 1113.57 38.6207 1100.46 50.0335Z" />
<path d="M1029.6 106.767C1013.88 110.915 999.537 110.281 986.675 99.2925C965.183 80.9315 966.695 45.1089 992.513 29.4386C1007.34 20.4427 1023.18 21.7838 1038.18 30.6805C1039.01 31.1703 1039.81 31.6973 1040.63 32.1959C1041.17 32.5219 1041.72 32.828 1042.27 33.1478C1046.54 25.0773 1046.54 25.0773 1061 26.3563C1061 27.918 1061 29.5297 1061 31.1415C1061 56.1383 1061.17 81.1366 1060.94 106.131C1060.78 124.595 1048.29 139.894 1029.53 143.049C1017.86 145.012 1006.37 144.862 995.517 139.915C983.858 134.603 976.696 125.356 973.862 112.353C981.808 112.353 989.522 112.353 997.357 112.353C1001.54 121.408 1013.73 125.887 1022.15 123.333C1033.72 119.819 1038.59 113.388 1037.7 103.101C1035.09 104.266 1032.52 105.412 1029.6 106.767ZM996.023 70.0425C996.644 71.8363 997.196 73.6572 997.897 75.4192C1003.36 89.1713 1022.75 92.5375 1032.89 80.7448C1038.69 73.9905 1040.09 61.4036 1034.54 54.1237C1028.63 46.3703 1018.86 43.288 1009.59 46.85C999.21 50.8377 995.976 58.9541 996.023 70.0425Z" />
<path d="M894.058 109.007C875.946 99.5744 868.988 83.9588 870.19 64.9359C871.558 43.3023 885.428 27.9133 906.63 24.2809C919.118 22.1415 931.764 23.9267 942.374 33.5592C943.143 30.8391 943.772 28.6167 944.462 26.1761C950.338 26.1761 956.441 26.1761 962.772 26.1761C962.772 54.4043 962.772 82.4715 962.772 110.999C957.233 110.999 951.765 111.264 946.352 110.833C944.788 110.709 943.383 108.587 941.905 107.38C942.066 106.79 942.226 106.2 942.387 105.61C940.902 106.248 939.339 106.75 937.944 107.545C923.695 115.668 909.22 116.551 894.058 109.007ZM937.981 60.9415C934.211 52.052 927.676 46.7498 917.928 46.0401C909.008 45.3907 898.81 50.8355 895.409 61.208C892.192 71.021 895.208 81.0724 904.154 87.5918C910.944 92.5403 923.976 92.1263 930.309 87.1701C938.638 80.6517 940.636 70.7982 937.981 60.9415Z" />
<path d="M859.803 110.998C852.358 111 845.397 111 838 111C838 94.3713 838.446 78.0739 837.853 61.8145C837.412 49.7017 832.677 45.5365 824.194 45.155C814.65 44.726 806.613 51.291 806.191 61.1564C805.49 77.5239 806 93.9434 806 110.671C797.135 110.671 789.394 110.671 781.324 110.671C781.324 82.7872 781.324 54.7152 781.324 26.0074C786.227 26.0074 791.336 25.7749 796.396 26.1705C797.663 26.2696 799.051 28.2234 799.879 29.623C800.824 31.2193 801.205 33.149 801.955 35.2861C810.993 27.7498 820.655 23.2407 832.099 24.0333C848.328 25.1574 859.652 35.5002 860.756 50.9849C862.112 69.9902 861.691 89.1237 861.925 108.203C861.936 109.127 860.857 110.065 859.803 110.998Z" />
<path d="M716.092 24C727.563 23.1398 737.424 26.0088 746.402 33.4289C747.137 30.8529 747.77 28.6357 748.47 26.1827C754.309 26.1827 760.411 26.1827 766.757 26.1827C766.757 54.3633 766.757 82.4196 766.757 110.998C761.142 110.998 755.521 111.241 749.949 110.826C748.572 110.723 747.354 108.482 746.062 107.224C746.197 106.7 746.333 106.176 746.468 105.652C744.982 106.253 743.369 106.65 742.029 107.485C723.182 119.23 699.298 114.749 685.563 99.9118C672.855 86.1824 669.54 62.0459 680.784 44.5088C689.021 31.6629 700.337 24.6136 716.092 24ZM701.02 57.7729C697.928 63.6138 697.322 69.7341 699.473 75.9523C702.395 84.3976 710.131 92.0175 723.601 91.0754C732.236 90.4715 739.216 84.2659 742.136 74.6272C745.381 63.9156 739.794 51.9395 729.192 47.6588C718.95 43.5237 707.009 47.5072 701.02 57.7729Z" />
<path d="M528.044 110.052C530.338 94.361 532.57 79.1143 535.03 63.9042C537.562 48.2397 540.368 32.6196 542.945 16.962C543.807 11.7253 544.332 6.43323 545.018 1.12018C553.493 1.12018 561.469 1.12018 569.784 1.12018C579.325 22.6899 588.909 44.3555 598.998 67.1616C609.014 44.558 618.635 22.8448 628.271 1.09888C636.385 1.09888 644.366 1.09888 653.072 1.09888C658.684 37.5117 664.304 73.9706 670.011 110.999C662.316 110.999 654.711 111.117 647.119 110.863C646.056 110.827 644.325 109.077 644.139 107.922C642.595 98.2985 641.399 88.6196 639.986 78.9738C638.232 67.0024 636.372 55.0467 634.377 41.8915C629.75 51.6131 625.53 60.2729 621.493 69.0169C616.246 80.3788 611.137 91.8046 605.987 103.211C605.265 104.811 604.89 106.633 603.899 108.029C603.028 109.255 601.621 110.63 600.266 110.863C598.054 111.243 595.511 111.781 594.117 108.652C585.761 89.8979 577.298 71.1918 568.805 52.4995C567.456 49.5303 565.775 46.7118 563.258 44.0319C559.855 66.2211 556.452 88.4102 553.062 110.513C544.606 110.513 536.344 110.513 528.044 110.052Z" />
<path d="M496.844 30.9767C514.481 40.8107 520.641 56.2853 519.941 75.7692C496.722 75.7692 473.499 75.7692 450.184 75.7692C453.367 92.0499 463.401 98.4838 476.954 99.7743C486.505 100.684 494.882 96.6796 501.126 88.8452C502.253 87.4314 504.45 86.3368 506.273 86.1244C509.888 85.7034 513.587 86 517.663 86C512.503 99.5821 503.127 108.484 489.341 111.872C474.054 115.628 459.478 112.895 448.41 101.371C443.195 95.941 439.329 88.2483 437.333 80.9062C433.852 68.1085 436.071 55.5502 443.938 44.3287C449.907 35.814 458.063 30.4807 467.952 28.1242C477.639 25.8163 487.292 26.5533 496.844 30.9767ZM457.475 49.0163C454.822 53.4355 452.17 57.8546 449.201 62.8014C468.895 62.8014 487.227 62.8014 505.638 62.8014C503.435 52.0082 497.092 44.906 487.001 41.5833C476.103 37.9951 466.378 40.79 457.475 49.0163Z" />
<path d="M410 13.0095C410 8.53296 410 4.55487 410 0.289307C414.275 0.289307 418.349 0.289307 422.715 0.289307C422.715 36.9504 422.715 73.686 422.715 110.711C418.722 110.711 414.649 110.711 410 110.711C410 78.3597 410 45.9338 410 13.0095Z" />
<path d="M381.698 106.797C364.17 117.139 340.314 115.228 326.516 99.8873C320.391 93.0772 316.899 84.9797 315.809 75.5441C314.727 66.1666 316.293 57.5793 320.31 49.3604C326.008 37.7032 335.945 31.0259 348.192 28.1288C360.903 25.1219 372.977 27.4084 383.814 34.9927C391.433 40.3249 395.984 47.7948 398.777 56.8005C393.988 56.8005 389.425 56.8005 384.415 56.8005C381.876 50.3144 376.905 45.7843 370.274 42.9961C363.879 40.3067 357.254 40.05 350.686 41.8768C337.289 45.6028 327.814 57.1056 330.137 75.1277C331.612 86.5765 339.027 96.8567 354.957 99.8282C363.407 101.405 378.657 97.1892 384.318 83.1991C389.006 83.1991 393.778 83.1991 398.874 83.1991C396.249 93.2613 390.383 100.803 381.698 106.797Z" />
<path d="M303 66C303 81.1414 303 95.7828 303 110.712C298.387 110.712 293.981 110.712 289.285 110.712C289.285 83.7147 289.285 56.6462 289.285 29.2885C293.611 29.2885 298.017 29.2885 303 29.2885C303 41.3069 303 53.4034 303 66Z" />
<path d="M303.607 0.402832C303.944 5.70294 303.944 10.6581 303.944 15.7988C298.866 15.7988 294.127 15.7988 289.205 15.7988C289.205 10.5254 289.205 5.45367 289.205 0.0578613C294.024 0.0578613 298.647 0.057861 303.607 0.402832Z" />
<path d="M198 94.9974C198 63.1946 198 31.8911 198 0.293945C202.599 0.293945 207.006 0.293945 211.943 0.293945C211.943 12.3856 211.943 24.5787 211.943 36.6414C217.412 33.927 222.3 30.8133 227.631 28.9996C238.426 25.3271 248.893 26.1503 258.595 32.9197C266.338 38.3217 270.432 46.1443 270.779 54.9404C271.507 73.3911 271 91.8907 271 110.685C266.776 110.685 262.703 110.685 258 110.685C258 108.755 258.038 106.661 257.994 104.569C257.672 89.3234 258.056 74.0173 256.785 58.8501C255.645 45.2392 245.398 37.614 230.559 40.7065C220.126 42.8808 211.658 55.2369 211.912 66.0042C212.262 80.8032 212 95.6166 212 110.711C207.388 110.711 202.982 110.711 198 110.711C198 105.695 198 100.596 198 94.9974Z" />
<path d="M141.227 27C164.66 26.7584 179.703 39.1315 184.668 60.5321C185.793 65.382 185.268 70.6147 185.518 76.0088C161.809 76.0088 139.037 76.0088 116.244 76.0088C117.085 86.8789 126.833 96.8759 138.059 99.085C150.546 101.542 160.011 97.1008 167.828 87.7362C168.505 86.9255 169.704 86.1252 170.696 86.0782C174.672 85.8897 178.662 86.0002 183.887 86.0002C181.819 89.8197 180.459 93.19 178.379 96.0334C164.683 114.756 139.573 118.183 121.14 106.946C108.937 99.5076 103.041 88.0058 102.023 73.938C101.316 64.184 102.796 54.79 108.226 46.468C114.598 36.7043 123.338 30.1352 135.045 28.0029C136.949 27.6561 138.858 27.3337 141.227 27ZM140.079 40.3998C126.726 43.1168 118.208 51.2059 116.476 62.8353C134.564 62.8353 152.647 62.8353 170.731 62.8353C170.659 51.7021 158.405 39.1128 140.079 40.3998Z" />
<path d="M3.23617 11.6066C2.30517 9.00383 1.57909 6.74944 0.755859 4.19347C6.29933 4.19347 11.4129 4.19347 16.4616 4.19347C22.3149 18.7742 28.1866 33.2944 33.9732 47.8486C38.7026 59.7436 43.3082 71.6879 48.0365 83.5834C48.5241 84.8101 49.4745 85.8527 50.2102 86.9806C50.9684 85.9828 51.999 85.0932 52.4448 83.9712C62.665 58.2446 72.7901 32.4801 83.0872 6.78441C83.5756 5.56554 85.4234 4.24309 86.7407 4.12627C90.6911 3.77605 94.6923 4.00023 99.6516 4.00023C96.7084 11.4803 93.9947 18.4011 91.2633 25.315C80.5039 52.5495 69.7299 79.7784 58.9904 107.021C57.9488 109.663 56.6939 111.482 53.3022 111.079C50.1865 110.708 46.992 111 43.5043 111C31.6368 81.2129 19.7704 51.3821 7.84917 21.5732C6.54117 18.3026 4.91803 15.1581 3.23617 11.6066Z" />
</svg>
